PathFileType	4	(X/Y/Z)	SUBJ63_1_walk_RCNL2025.trc
DataRate	CameraRate	NumFrames	NumMarkers	Units	OrigDataRate	OrigDataStartFrame	OrigNumFrames
100	100	4	25	mm	100	1	238
Frame#	Time	R_Shoulder			L_Shoulder			C7			J_Notch			R_Elbow			L_Elbow			R_Wrist			L_Wrist			R_Asis			L_Asis			Sacral			Thoracic			Sternum			R_Thigh_Lateral			R_Knee_Lateral			R_Shank_Lateral			R_Ankle_Lateral			R_Heel			R_Toe			L_Thigh_Lateral			L_Knee_Lateral			L_Shank_Lateral			L_Ankle_Lateral			L_Heel			L_Toe		
		X1	Y1	Z1	X2	Y2	Z2	X3	Y3	Z3	X4	Y4	Z4	X5	Y5	Z5	X6	Y6	Z6	X7	Y7	Z7	X8	Y8	Z8	X9	Y9	Z9	X10	Y10	Z10	X11	Y11	Z11	X12	Y12	Z12	X13	Y13	Z13	X14	Y14	Z14	X15	Y15	Z15	X16	Y16	Z16	X17	Y17	Z17	X18	Y18	Z18	X19	Y19	Z19	X20	Y20	Z20	X21	Y21	Z21	X22	Y22	Z22	X23	Y23	Z23	X24	Y24	Z24	X25	Y25	Z25
1	0.00000000	-1068.978394	1295.640015	-187.216721	-1058.569214	1286.717529	-524.814758	-1127.169189	1356.892578	-363.214722	-1021.829529	1244.410156	-354.766907	-1127.441406	1017.731567	-82.648796	-1114.731323	993.252136	-615.806580	-1072.173523	800.918915	-31.063309	-1008.608368	792.294952	-638.910950	-1036.606567	850.573792	-232.494858	-1008.714294	840.687378	-479.747894	-1242.110229	855.211609	-375.668488	-1221.825562	1181.563354	-363.420563	-986.029602	1067.799805	-341.413818	-994.911987	521.847412	-171.965149	-976.249939	470.733612	-218.861191	-1027.924683	303.859314	-181.900085	-1062.025269	100.115349	-267.288879	-1096.464355	106.675804	-325.554443	-953.627869	65.326355	-254.895782	-1128.585327	468.177338	-557.527710	-1137.633301	443.506989	-487.764862	-1174.381958	254.082016	-519.343262	-1220.587280	65.091866	-439.931458	-1264.175293	57.836964	-379.837402	-1105.622314	44.204449	-441.720886
2	0.01000000	-1057.029419	1293.510864	-186.987061	-1043.381592	1285.678589	-524.449158	-1113.973633	1355.332642	-364.024017	-1008.206848	1242.888672	-354.194183	-1115.806396	1015.278381	-83.179695	-1114.704590	993.248230	-615.805298	-1061.187927	798.508759	-31.023112	-980.376465	794.554230	-635.081207	-1021.467712	848.653687	-233.397552	-995.031128	838.130371	-480.825195	-1227.649902	853.729675	-375.505554	-1208.069336	1179.776855	-365.394501	-971.793518	1066.302124	-340.742676	-977.646484	520.830139	-173.471802	-959.404297	469.083160	-220.939102	-1000.140869	297.330872	-183.878708	-1017.611694	91.827950	-269.107422	-1051.727051	95.593338	-327.892426	-907.002625	65.249367	-255.035736	-1124.139526	468.242401	-557.603516	-1133.108643	443.473083	-487.619934	-1173.023926	254.702194	-518.894592	-1219.949341	65.924820	-438.687347	-1263.407837	59.757351	-378.782318	-1105.139893	44.138390	-441.802246
3	0.02000000	-1044.816528	1291.002808	-186.741241	-1028.129150	1284.255859	-523.981873	-1100.723511	1353.509277	-364.734161	-994.133118	1241.025146	-353.622009	-1103.919678	1012.574219	-83.585838	-1074.609741	988.305115	-613.316650	-1049.871155	795.858612	-30.864972	-952.362366	797.171753	-631.140503	-1006.224121	846.245789	-233.989365	-981.229980	835.333069	-481.884430	-1213.147095	851.996460	-375.354309	-1194.404541	1177.818237	-367.273865	-957.484924	1064.202393	-340.087341	-961.457703	518.925293	-174.992172	-943.299988	466.848969	-222.909134	-972.769165	291.220856	-185.575760	-973.379456	84.933868	-270.301117	-1007.120056	85.973389	-329.526733	-861.147217	66.401268	-254.755325	-1119.216309	468.190247	-557.553650	-1128.080322	443.399353	-487.378601	-1171.483398	255.392197	-518.347717	-1219.303833	66.856117	-437.340637	-1262.769043	61.991299	-377.894073	-1104.682373	44.077164	-441.818054
4	0.03000000	-1032.304077	1288.188232	-186.460754	-1012.798279	1282.536255	-523.380615	-1087.361694	1351.445923	-365.245361	-979.833374	1238.865112	-353.050110	-1091.771362	1009.679016	-83.876038	-1034.436401	983.065125	-610.693909	-1038.210449	793.022522	-30.610872	-924.658051	800.103119	-627.096985	-990.868713	843.464783	-234.294250	-967.292664	832.393433	-482.912994	-1198.602173	850.062561	-375.181793	-1180.802002	1175.721924	-369.011566	-943.082703	1061.571533	-339.471161	-946.482727	516.102173	-176.517090	-927.846069	464.114838	-224.732590	-945.931580	285.718628	-186.968002	-929.852234	79.558609	-270.886322	-963.252869	77.990852	-330.425873	-816.502502	68.728592	-254.218124	-1113.758057	468.042694	-557.409668	-1122.497681	443.290344	-487.082092	-1169.689331	256.162506	-517.772949	-1218.667358	67.917572	-436.026764	-1262.265869	64.509140	-377.261902	-1104.267212	44.025513	-441.781891
